<!DOCTYPE svg PUBLIC "-//W3C//DTD SVG 1.1//EN" "http://www.w3.org/Graphics/SVG/1.1/DTD/svg11.dtd">
<!-- Uploaded to: SVG Repo, www.svgrepo.com, Transformed by: SVG Repo Mixer Tools -->
<svg width="800px" height="800px" viewBox="0 0 1024 1024" class="icon" version="1.1" xmlns="http://www.w3.org/2000/svg" fill="#000000">
<g id="SVGRepo_bgCarrier" stroke-width="0"/>
<g id="SVGRepo_tracerCarrier" stroke-linecap="round" stroke-linejoin="round"/>
<g id="SVGRepo_iconCarrier">
<path d="M453.12 948.032h131.264c6.4 0 12.48 0.576 18.688 1.344V157.952c0-51.072-38.656-92.416-86.336-92.416-47.744 0-86.464 41.344-86.464 92.416v792c7.552-1.216 15.104-1.92 22.848-1.92z" fill="#453C67"/>
<path d="M603.072 313.6l324.8 346.176v78.592L603.072 570.624zM603.072 788.16l87.104 90.752v92.864l-87.104-25.984zM430.336 782.4l-87.04 90.752v92.736l87.04-25.92zM430.336 312.32l-324.8 346.048v78.72l324.8-167.808zM502.144 949.44h30.144c1.408 0 2.944 0.128 4.288 0.384v-189.376c0-12.16-8.896-22.08-19.84-22.08s-19.904 9.856-19.904 22.08v189.504a28.8 28.8 0 0 1 5.312-0.512z" fill="#46C2CB"/>
</g>
</svg>